<svg width="24" height="24" viewBox="0 0 24 24" fill="none" xmlns="http://www.w3.org/2000/svg">
<path d="M21.6 19.1999H19.2V8.6999L12 13.1999L4.8 8.6999V19.1999H2.4V4.7999H3.84L12 9.8999L20.16 4.7999H21.6M21.6 2.3999H2.4C1.068 2.3999 0 3.4679 0 4.7999V19.1999C0 19.8364 0.252856 20.4469 0.702944 20.897C1.15303 21.347 1.76348 21.5999 2.4 21.5999H21.6C22.2365 21.5999 22.847 21.347 23.2971 20.897C23.7471 20.4469 24 19.8364 24 19.1999V4.7999C24 4.16338 23.7471 3.55293 23.2971 3.10285C22.847 2.65276 22.2365 2.3999 21.6 2.3999Z" fill="#64A4F6"/>
</svg>
