<svg width="173" height="25" viewBox="0 0 173 25" fill="none" xmlns="http://www.w3.org/2000/svg">
<path d="M0.125 19V1.54541H7.69318C9.02273 1.54541 10.1392 1.72439 11.0426 2.08234C11.9517 2.4403 12.6364 2.94598 13.0966 3.59939C13.5625 4.2528 13.7955 5.02268 13.7955 5.90905C13.7955 6.55109 13.6534 7.13632 13.3693 7.66473C13.0909 8.19314 12.6989 8.63632 12.1932 8.99427C11.6875 9.34655 11.0966 9.59086 10.4205 9.72723V9.89768C11.1705 9.92609 11.8523 10.1164 12.4659 10.4687C13.0795 10.8153 13.5682 11.2954 13.9318 11.909C14.2955 12.517 14.4773 13.2329 14.4773 14.0568C14.4773 15.0113 14.2273 15.8608 13.7273 16.6051C13.233 17.3494 12.5284 17.9346 11.6136 18.3608C10.6989 18.7869 9.60796 19 8.34091 19H0.125ZM4.86364 15.2159H7.07955C7.875 15.2159 8.47159 15.0681 8.86932 14.7727C9.26705 14.4715 9.46591 14.0284 9.46591 13.4431C9.46591 13.034 9.37216 12.6875 9.18466 12.4034C8.99716 12.1193 8.73011 11.9034 8.38352 11.7556C8.04261 11.6079 7.63068 11.534 7.14773 11.534H4.86364V15.2159ZM4.86364 8.60223H6.80682C7.22159 8.60223 7.58807 8.53689 7.90625 8.40621C8.22443 8.27552 8.47159 8.08802 8.64773 7.84371C8.82955 7.59371 8.92045 7.28973 8.92045 6.93177C8.92045 6.392 8.72727 5.98007 8.34091 5.69598C7.95455 5.40621 7.46591 5.26132 6.875 5.26132H4.86364V8.60223Z" fill="#595959"/>
<path d="M24.7131 13.2727V5.90905H29.4176V19H24.9517V16.5113H24.8153C24.5313 17.3465 24.0341 18 23.3239 18.4715C22.6136 18.9375 21.7699 19.1704 20.7926 19.1704C19.8778 19.1704 19.0767 18.9602 18.3892 18.5397C17.7074 18.1193 17.1761 17.5397 16.7955 16.8011C16.4205 16.0625 16.2301 15.2159 16.2244 14.2613V5.90905H20.929V13.2727C20.9347 13.9204 21.0994 14.4289 21.4233 14.7983C21.7528 15.1676 22.2131 15.3522 22.804 15.3522C23.196 15.3522 23.5341 15.2698 23.8182 15.1051C24.108 14.9346 24.3295 14.696 24.483 14.3892C24.642 14.0767 24.7188 13.7045 24.7131 13.2727Z" fill="#595959"/>
<path d="M36.549 19.1704C35.6172 19.1704 34.7592 18.9261 33.9751 18.4375C33.1967 17.9488 32.5717 17.2073 32.1001 16.213C31.6342 15.2187 31.4013 13.9659 31.4013 12.4545C31.4013 10.875 31.6456 9.59086 32.1342 8.60223C32.6285 7.61359 33.2649 6.88916 34.0433 6.42893C34.8274 5.96871 35.6513 5.73859 36.5149 5.73859C37.1626 5.73859 37.7308 5.85223 38.2195 6.0795C38.7081 6.30109 39.1172 6.59939 39.4467 6.97439C39.7763 7.34371 40.0263 7.74996 40.1967 8.19314H40.2649V1.54541H44.9695V19H40.299V16.8522H40.1967C40.0149 17.2954 39.7536 17.6931 39.4126 18.0454C39.0774 18.392 38.6683 18.6676 38.1854 18.8721C37.7081 19.071 37.1626 19.1704 36.549 19.1704ZM38.2876 15.5568C38.7195 15.5568 39.0888 15.4318 39.3956 15.1818C39.7081 14.9261 39.9467 14.5681 40.1115 14.1079C40.282 13.642 40.3672 13.0909 40.3672 12.4545C40.3672 11.8068 40.282 11.2528 40.1115 10.7926C39.9467 10.3267 39.7081 9.97155 39.3956 9.72723C39.0888 9.47723 38.7195 9.35223 38.2876 9.35223C37.8558 9.35223 37.4865 9.47723 37.1797 9.72723C36.8786 9.97155 36.6456 10.3267 36.4808 10.7926C36.3217 11.2528 36.2422 11.8068 36.2422 12.4545C36.2422 13.1022 36.3217 13.659 36.4808 14.125C36.6456 14.5852 36.8786 14.9403 37.1797 15.1903C37.4865 15.4346 37.8558 15.5568 38.2876 15.5568Z" fill="#595959"/>
<path d="M47.2791 19V5.90905H51.9837V19H47.2791Z" fill="#595959"/>
<path d="M58.0284 19.2045C57.1932 19.2045 56.4545 19.0681 55.8125 18.7954C55.1761 18.517 54.6761 18.0965 54.3125 17.534C53.9489 16.9715 53.767 16.2556 53.767 15.3863C53.767 14.6704 53.8892 14.0596 54.1335 13.5539C54.3778 13.0426 54.7188 12.625 55.1562 12.3011C55.5938 11.9772 56.1023 11.7301 56.6818 11.5596C57.267 11.3892 57.8977 11.2784 58.5739 11.2272C59.3068 11.1704 59.8949 11.1022 60.3381 11.0227C60.7869 10.9375 61.1108 10.821 61.3097 10.6733C61.5085 10.5198 61.608 10.3181 61.608 10.0681V10.034C61.608 9.69314 61.4773 9.43177 61.2159 9.24996C60.9545 9.06814 60.6193 8.97723 60.2102 8.97723C59.7614 8.97723 59.3949 9.07666 59.1108 9.27552C58.8324 9.46871 58.6648 9.767 58.608 10.1704H54.2784C54.3352 9.37496 54.5881 8.642 55.0369 7.97155C55.4915 7.29541 56.1534 6.75564 57.0227 6.35223C57.892 5.94314 58.9773 5.73859 60.2784 5.73859C61.2159 5.73859 62.0568 5.84939 62.8011 6.07098C63.5455 6.28689 64.179 6.59087 64.7017 6.98291C65.2244 7.36927 65.6222 7.82382 65.8949 8.34655C66.1733 8.86359 66.3125 9.42609 66.3125 10.034V19H61.9148V17.159H61.8125C61.5511 17.6477 61.233 18.0426 60.858 18.3437C60.4886 18.6448 60.0653 18.8636 59.5881 19C59.1165 19.1363 58.5966 19.2045 58.0284 19.2045ZM59.5625 16.2386C59.9205 16.2386 60.2557 16.1647 60.5682 16.017C60.8864 15.8693 61.1449 15.6562 61.3438 15.3778C61.5426 15.0994 61.642 14.7613 61.642 14.3636V13.2727C61.517 13.3238 61.3835 13.3721 61.2415 13.4176C61.1051 13.463 60.9574 13.5056 60.7983 13.5454C60.6449 13.5852 60.4801 13.6221 60.304 13.6562C60.1335 13.6903 59.9545 13.7215 59.767 13.75C59.4034 13.8068 59.1051 13.9005 58.8722 14.0312C58.6449 14.1562 58.4744 14.3125 58.3608 14.5C58.2528 14.6818 58.1989 14.8863 58.1989 15.1136C58.1989 15.4772 58.3267 15.7556 58.5824 15.9488C58.8381 16.142 59.1648 16.2386 59.5625 16.2386Z" fill="#595959"/>
<path d="M68.5604 5.90905H73.2649V19.4431C73.2649 20.5909 73.0234 21.4886 72.5405 22.1363C72.0632 22.784 71.3928 23.2414 70.5291 23.5085C69.6655 23.7755 68.657 23.909 67.5035 23.909C67.3331 23.909 67.1768 23.9062 67.0348 23.9005C66.8871 23.8948 66.7251 23.8863 66.549 23.875V20.3977C66.6626 20.409 66.7621 20.4176 66.8473 20.4233C66.9268 20.4289 67.0092 20.4318 67.0945 20.4318C67.657 20.4318 68.0405 20.3437 68.245 20.1676C68.4553 19.9971 68.5604 19.7215 68.5604 19.3409V5.90905Z" fill="#595959"/>
<path d="M75.6619 19V5.90905H80.3665V19H75.6619Z" fill="#595959"/>
<path d="M96.9112 19H90.1953V1.54541H96.843C98.6385 1.54541 100.19 1.89484 101.496 2.59371C102.809 3.28689 103.82 4.28689 104.531 5.59371C105.246 6.89484 105.604 8.4545 105.604 10.2727C105.604 12.0909 105.249 13.6534 104.539 14.9602C103.829 16.2613 102.823 17.2613 101.522 17.9602C100.221 18.6534 98.684 19 96.9112 19ZM94.934 14.9772H96.7408C97.6044 14.9772 98.3402 14.838 98.9482 14.5596C99.5618 14.2812 100.028 13.8011 100.346 13.1193C100.67 12.4375 100.832 11.4886 100.832 10.2727C100.832 9.05677 100.667 8.10791 100.337 7.42609C100.013 6.74427 99.5362 6.26416 98.9055 5.98575C98.2805 5.70734 97.5135 5.56814 96.6044 5.56814H94.934V14.9772Z" fill="#595959"/>
<path d="M134.433 10.1704H130.103C130.08 9.90336 129.987 9.67325 129.822 9.48007C129.657 9.28689 129.444 9.13916 129.183 9.03689C128.927 8.92893 128.643 8.87496 128.33 8.87496C127.927 8.87496 127.58 8.94882 127.29 9.09655C127.001 9.24427 126.859 9.4545 126.864 9.72723C126.859 9.92041 126.941 10.0994 127.112 10.2642C127.288 10.4289 127.626 10.5568 128.126 10.6477L130.785 11.125C132.126 11.3693 133.123 11.7812 133.776 12.3608C134.435 12.9346 134.768 13.7045 134.773 14.6704C134.768 15.6022 134.489 16.4119 133.938 17.0994C133.393 17.7812 132.646 18.3096 131.697 18.6846C130.754 19.0539 129.677 19.2386 128.467 19.2386C126.467 19.2386 124.901 18.8295 123.771 18.0113C122.646 17.1931 122.018 16.1136 121.887 14.7727H126.558C126.62 15.1875 126.825 15.5085 127.171 15.7358C127.523 15.9573 127.967 16.0681 128.501 16.0681C128.933 16.0681 129.288 15.9943 129.566 15.8465C129.85 15.6988 129.995 15.4886 130.001 15.2159C129.995 14.9659 129.87 14.767 129.626 14.6193C129.387 14.4715 129.012 14.3522 128.501 14.2613L126.183 13.8522C124.847 13.6193 123.847 13.1761 123.183 12.5227C122.518 11.8693 122.188 11.0284 122.194 9.99996C122.188 9.09087 122.427 8.32098 122.91 7.6903C123.398 7.05393 124.094 6.57098 124.998 6.24143C125.907 5.90621 126.984 5.73859 128.228 5.73859C130.12 5.73859 131.611 6.13064 132.702 6.91473C133.799 7.69882 134.376 8.78405 134.433 10.1704Z" fill="#595959"/>
<path d="M136.576 19V5.90905H141.281V19H136.576Z" fill="#595959"/>
<path d="M149.984 24.1818C148.672 24.1818 147.547 23.9943 146.609 23.6193C145.678 23.25 144.953 22.7386 144.436 22.0852C143.925 21.4375 143.638 20.6931 143.575 19.8522H148.109C148.155 20.1306 148.268 20.3551 148.45 20.5255C148.632 20.696 148.865 20.8181 149.149 20.892C149.439 20.9715 149.763 21.0113 150.121 21.0113C150.729 21.0113 151.232 20.8636 151.629 20.5681C152.033 20.2727 152.234 19.7386 152.234 18.9659V16.75H152.098C151.928 17.1931 151.666 17.571 151.314 17.8835C150.962 18.1903 150.538 18.4261 150.044 18.5909C149.55 18.75 149.007 18.8295 148.416 18.8295C147.484 18.8295 146.626 18.6136 145.842 18.1818C145.064 17.75 144.439 17.0653 143.967 16.1278C143.501 15.1903 143.268 13.9659 143.268 12.4545C143.268 10.875 143.513 9.59086 144.001 8.60223C144.496 7.61359 145.132 6.88916 145.911 6.42893C146.695 5.96871 147.518 5.73859 148.382 5.73859C149.03 5.73859 149.598 5.85223 150.087 6.0795C150.575 6.30109 150.984 6.59939 151.314 6.97439C151.643 7.34371 151.893 7.74996 152.064 8.19314H152.166V5.90905H156.871V18.9659C156.871 20.0738 156.584 21.0142 156.01 21.7869C155.442 22.5653 154.641 23.159 153.607 23.5681C152.572 23.9772 151.365 24.1818 149.984 24.1818ZM150.155 15.4886C150.587 15.4886 150.956 15.3693 151.263 15.1306C151.575 14.8863 151.814 14.5397 151.979 14.0909C152.149 13.6363 152.234 13.0909 152.234 12.4545C152.234 11.8068 152.149 11.2528 151.979 10.7926C151.814 10.3267 151.575 9.97155 151.263 9.72723C150.956 9.47723 150.587 9.35223 150.155 9.35223C149.723 9.35223 149.354 9.47723 149.047 9.72723C148.746 9.97155 148.513 10.3267 148.348 10.7926C148.189 11.2528 148.109 11.8068 148.109 12.4545C148.109 13.1022 148.189 13.6534 148.348 14.1079C148.513 14.5568 148.746 14.9005 149.047 15.1392C149.354 15.3721 149.723 15.4886 150.155 15.4886Z" fill="#595959"/>
<path d="M163.968 11.6363V19H159.263V5.90905H163.729V8.39768H163.866C164.15 7.56814 164.65 6.91757 165.366 6.44598C166.087 5.97439 166.928 5.73859 167.888 5.73859C168.815 5.73859 169.619 5.95166 170.3 6.3778C170.988 6.79825 171.519 7.3778 171.894 8.11643C172.275 8.85507 172.462 9.69882 172.457 10.6477V19H167.752V11.6363C167.758 10.9886 167.593 10.4801 167.258 10.1108C166.928 9.74143 166.468 9.55677 165.877 9.55677C165.491 9.55677 165.153 9.642 164.863 9.81246C164.579 9.97723 164.36 10.2159 164.207 10.5284C164.053 10.8352 163.974 11.2045 163.968 11.6363Z" fill="#595959"/>
<path fill-rule="evenodd" clip-rule="evenodd" d="M114.138 19.2386C112.74 19.2386 111.536 18.9715 110.524 18.4375C109.518 17.8977 108.743 17.125 108.197 16.1193C107.658 15.1079 107.388 13.8977 107.388 12.4886C107.388 11.1363 107.661 9.9545 108.206 8.94314C108.751 7.93177 109.521 7.14484 110.516 6.58234C111.51 6.01984 112.683 5.73859 114.036 5.73859C115.024 5.73859 115.919 5.892 116.72 6.19882C117.521 6.50564 118.206 6.95166 118.774 7.53689C119.342 8.11643 119.78 8.82098 120.087 9.65052C120.393 10.4801 120.547 11.4147 120.547 12.4545V13.5454H112.024V13.75C112.024 14.1704 112.112 14.5454 112.288 14.875C112.464 15.2045 112.717 15.463 113.047 15.6505C113.376 15.838 113.774 15.9318 114.24 15.9318C114.564 15.9318 114.859 15.8863 115.126 15.7954C115.399 15.7045 115.632 15.5738 115.825 15.4034C116.018 15.2272 116.161 15.017 116.251 14.7727H120.547C120.399 15.6818 120.05 16.4715 119.499 17.142C118.947 17.8068 118.217 18.3238 117.308 18.6931C116.405 19.0568 115.348 19.2386 114.138 19.2386ZM115.928 9.96587C116.115 10.25 116.212 10.5795 116.217 10.9545H112.024C112.036 10.5738 112.135 10.2414 112.322 9.95734C112.516 9.67325 112.771 9.45166 113.089 9.29257C113.408 9.1278 113.757 9.04541 114.138 9.04541C114.53 9.04541 114.879 9.1278 115.186 9.29257C115.499 9.45166 115.746 9.67609 115.928 9.96587Z" fill="#595959"/>
<path d="M78.014 4.54545C77.3776 4.54545 76.8322 4.33523 76.3776 3.91477C75.9231 3.49432 75.6958 2.98864 75.6958 2.39773C75.6958 1.80682 75.9231 1.30114 76.3776 0.880681C76.8322 0.460227 77.3776 0.25 78.014 0.25C78.656 0.25 79.2015 0.460227 79.6503 0.880681C80.1049 1.30114 80.3322 1.80682 80.3322 2.39773C80.3322 2.98864 80.1049 3.49432 79.6503 3.91477C79.2015 4.33523 78.656 4.54545 78.014 4.54545Z" fill="#595959"/>
<path d="M70.9124 4.54545C70.2761 4.54545 69.7306 4.33523 69.2761 3.91477C68.8215 3.49432 68.5942 2.98864 68.5942 2.39773C68.5942 1.80682 68.8215 1.30114 69.2761 0.880681C69.7306 0.460227 70.2761 0.25 70.9124 0.25C71.5545 0.25 72.0999 0.460227 72.5488 0.880681C73.0033 1.30114 73.2306 1.80682 73.2306 2.39773C73.2306 2.98864 73.0033 3.49432 72.5488 3.91477C72.0999 4.33523 71.5545 4.54545 70.9124 4.54545Z" fill="#595959"/>
<path d="M49.6312 4.54545C48.9948 4.54545 48.4494 4.33523 47.9948 3.91477C47.5403 3.49432 47.313 2.98864 47.313 2.39773C47.313 1.80682 47.5403 1.30114 47.9948 0.880681C48.4494 0.460227 48.9948 0.25 49.6312 0.25C50.2732 0.25 50.8187 0.460227 51.2675 0.880681C51.7221 1.30114 51.9494 1.80682 51.9494 2.39773C51.9494 2.98864 51.7221 3.49432 51.2675 3.91477C50.8187 4.33523 50.2732 4.54545 49.6312 4.54545Z" fill="#595959"/>
<path d="M138.928 4.54545C138.292 4.54545 137.746 4.33523 137.292 3.91477C136.837 3.49432 136.61 2.98864 136.61 2.39773C136.61 1.80682 136.837 1.30114 137.292 0.880681C137.746 0.460227 138.292 0.25 138.928 0.25C139.57 0.25 140.116 0.460227 140.564 0.880681C141.019 1.30114 141.246 1.80682 141.246 2.39773C141.246 2.98864 141.019 3.49432 140.564 3.91477C140.116 4.33523 139.57 4.54545 138.928 4.54545Z" fill="#595959"/>
<path d="M85.3201 19.2728C84.661 19.2728 84.0956 19.0427 83.624 18.5825C83.1581 18.1166 82.928 17.5512 82.9337 16.8865C82.928 16.2387 83.1581 15.6847 83.624 15.2245C84.0956 14.7643 84.661 14.5342 85.3201 14.5342C85.9451 14.5342 86.4962 14.7643 86.9735 15.2245C87.4564 15.6847 87.7007 16.2387 87.7064 16.8865C87.7007 17.3296 87.5843 17.733 87.357 18.0967C87.1354 18.4546 86.8456 18.7416 86.4877 18.9575C86.1297 19.1677 85.7405 19.2728 85.3201 19.2728Z" fill="#64A4F6"/>
</svg>
